<svg viewBox="0 0 48 48" xmlns="http://www.w3.org/2000/svg" xmlns:xlink="http://www.w3.org/1999/xlink"><filter id="a"><feGaussianBlur stdDeviation=".253"/></filter><filter id="b" height="1.158" width="1.372" x="-.186" y="-.079"><feGaussianBlur stdDeviation=".362"/></filter><filter id="c" height="1.199" width="1.266" x="-.133" y="-.099"><feGaussianBlur stdDeviation=".362"/></filter><filter id="d" height="1.187" width="1.325" x="-.163" y="-.093"><feGaussianBlur stdDeviation=".362"/></filter><filter id="e" height="1.363" width="1.157" x="-.079" y="-.182"><feGaussianBlur stdDeviation=".362"/></filter><filter id="f" height="1.24" width="1.286" x="-.143" y="-.12"><feGaussianBlur stdDeviation=".242"/></filter><filter id="g" height="1.247" width="1.322" x="-.161" y="-.123"><feGaussianBlur stdDeviation=".242"/></filter><filter id="h" height="1.246" width="1.134" x="-.067" y="-.123"><feGaussianBlur stdDeviation=".253"/></filter><filter id="i" height="1.571" width="1.123" x="-.062" y="-.285"><feGaussianBlur stdDeviation=".691"/></filter><linearGradient id="j"><stop offset="0" stop-color="#ff7215"/><stop offset="1" stop-color="#a40"/></linearGradient><linearGradient id="k"><stop offset="0" stop-color="#ffd73b"/><stop offset="1" stop-color="#ee8400"/></linearGradient><linearGradient id="l"><stop offset="0" stop-color="#7ed249"/><stop offset="1" stop-color="#286325"/></linearGradient><linearGradient id="m" gradientUnits="userSpaceOnUse" x1="31.621" x2="27.447" y1="20.246" y2="4.425"><stop offset="0" stop-color="#ff5959"/><stop offset="1" stop-color="#d90000"/></linearGradient><linearGradient id="n" gradientUnits="userSpaceOnUse" x1="32.269" x2="23.246" y1="21.623" y2="2.751"><stop offset="0" stop-color="#d1f6f6"/><stop offset="1" stop-color="#2adbdb"/></linearGradient><linearGradient id="o" gradientUnits="userSpaceOnUse" x1="24.822" x2="16.514" y1="11.76" y2="2.445"><stop offset="0" stop-color="#d700d7"/><stop offset="1" stop-color="#6e006e"/></linearGradient><linearGradient id="p" gradientUnits="userSpaceOnUse" x1="23.462" x2="40.401" y1="8.344" y2="20.408"><stop offset="0" stop-color="#ffea00"/><stop offset="1" stop-color="#ffffa4"/></linearGradient><linearGradient id="q" gradientUnits="userSpaceOnUse" x1="17.103" x2="13.833" xlink:href="#k" y1="28.19" y2="12.81"/><linearGradient id="r" gradientUnits="userSpaceOnUse" x1="13.359" x2="12.322" xlink:href="#k" y1="27.034" y2="25.789"/><linearGradient id="s" gradientUnits="userSpaceOnUse" x1="20.972" x2="21.866" xlink:href="#k" y1="26.623" y2="22.221"/><linearGradient id="t" gradientUnits="userSpaceOnUse" x1="34.631" x2="31.411" xlink:href="#k" y1="16.231" y2="9.933"/><linearGradient id="u" gradientUnits="userSpaceOnUse" x1="31.201" x2="23.865" xlink:href="#l" y1="18.17" y2="6.749"/><linearGradient id="v" gradientUnits="userSpaceOnUse" x1="18.986" x2="31.46" xlink:href="#l" y1="30.509" y2="32.337"/><linearGradient id="w" gradientUnits="userSpaceOnUse" x1="32.351" x2="21.157" xlink:href="#l" y1="42.327" y2="27.794"/><linearGradient id="x" gradientUnits="userSpaceOnUse" x1="32.674" x2="22.772" xlink:href="#l" y1="29.947" y2="30.316"/><linearGradient id="y" gradientUnits="userSpaceOnUse" x1="13.163" x2="31.722" xlink:href="#l" y1="33.927" y2="23.669"/><linearGradient id="z" gradientTransform="matrix(-.993 -.12 -.12 .993 56.679 3.58)" gradientUnits="userSpaceOnUse" x1="19.206" x2="33.202" xlink:href="#l" y1="39.085" y2="25.56"/><linearGradient id="A" gradientUnits="userSpaceOnUse" x1="14.622" x2="33.095" xlink:href="#l" y1="22.236" y2="46.232"/><linearGradient id="B" gradientUnits="userSpaceOnUse" x1="31.534" x2="24.197" xlink:href="#l" y1="32.481" y2="30.773"/><linearGradient id="C" gradientUnits="userSpaceOnUse" x1="10.656" x2="33.095" xlink:href="#l" y1="28.932" y2="46.232"/><linearGradient id="D" gradientTransform="matrix(.994 -.113 .113 .994 -5.076 3.767)" gradientUnits="userSpaceOnUse" x1="46.663" x2="37.325" xlink:href="#l" y1="33.831" y2="41.263"/><linearGradient id="E" gradientUnits="userSpaceOnUse" x1="26.845" x2="32.099" xlink:href="#j"/><radialGradient id="F" cx="13.855" cy="34.654" gradientTransform="matrix(1.407 .201 -.174 1.221 .403 -12.118)" gradientUnits="userSpaceOnUse" r="12.153" xlink:href="#j"/><radialGradient id="G" cx="18.185" cy="23.725" gradientTransform="matrix(1.481 .01 -.002 .345 -8.699 16.6)" gradientUnits="userSpaceOnUse" r="11.5" xlink:href="#j"/><path d="m21 38.156c-5.93 0-10.719 1.302-10.719 2.906s4.789 2.906 10.719 2.906c3.776 0 7.086-.546 9-1.344.703.111 1.503.188 2.375.188 1.098 0 3.536-.537 4.594.094-.605-.657.156-.961.156-1.375 0-.711-2.122-1.281-4.75-1.281-.352 0-.701.012-1.031.031-1.25-1.23-5.402-2.125-10.344-2.125z" fill-opacity=".769" fill-rule="evenodd" filter="url(#i)"/><path d="m7.579 28.969c3.926 3.979-.579 7.726 3.421 11.726s14.444 2.515 18-1c7.432-7.347-2.213-10.907.938-14.844-1.946-.691-20.78 6.296-22.359 4.117z" fill="url(#F)"/><path d="m33 25.5a11.5 3.5 0 1 1 -23 0 11.5 3.5 0 1 1 23 0z" fill="url(#G)" fill-rule="evenodd" transform="matrix(.987 -.161 .161 .987 -6.672 4.836)"/><path d="m27 30c1.445-.075 2.823-.53 3.391-.969.427-.33.376-1.021-.764-.867-.13-.271-.253-.557-.301-.991 1.863-.946 5.684 2.338-1.077 4.452-1.57-.223-1.54-1.577-1.25-1.625z" fill="url(#E)"/><path d="m9.988 27.085c-.913-.192-1.962.644-1.149 1.061 6.912 3.068 18.835-1.103 20.108-3.359.324-1.473-2.269-2.372-3.801-1.503-.874-1.103-3.066-1.538-4.066.442-.398-.722-1.944-.869-2.652-.044-.497-.858-3.499.528-2.917 1.635-.913-1.119-4.165-.286-3.712.619-.869-.368-1.915.28-1.812 1.149z" fill="url(#q)"/><path d="m11.093 28.146c-.264-.828-.053-1.317 1.326-.972.147-1.424.973-1.039 1.812-.619.301-.303-.123-1.331 1.458-.354.439.79-3.296 2.579-4.596 1.944z" fill="url(#r)"/><path d="m18.517 25.803c-.378-.293.977-2.128 2.033-.575.337-.846 1.138-.802 1.812.486.896-1.917 2.586-1.366 2.917-.265 0 0-4.817 2.386-6.762.354z" fill="url(#s)"/><path d="m31.583 38.002c1.278 1.805 3.62 3.981 5.563 4.923.206-.423.306-.79.224-1.058-2.023-.258-3.786-2.477-5.257-4.094-.24-.283-.626-.145-.53.229z" fill="url(#D)"/><path d="m33.824 41.848c-.2.358-.593.478-.699.814-.115.365.035.726.601.495.458.297.781-.102.681-.575-.054-.257-.534-.492-.583-.734z" fill="url(#w)"/><path d="m33.806 42.008c.067.367.017.711-.061 1.045.011 0 .442-.424.061-1.045z" fill="url(#v)"/><path d="m33.801 41.851c-.089.253-.579.588-.918.684-.368.105-.725-.055-.479-.614-.259-.424.084-.723.519-.691.303.023.576.298.878.621z" fill="url(#C)"/><path d="m33.556 41.873c-.365-.077-.71-.037-1.047.033 0-.011.436-.43 1.047-.033z" fill="url(#B)"/><path d="m33.821 41.843c.271-.391.577-.511.665-.852.095-.371-.075-.724-.628-.463-.453-.259-.806.096-.688.535.071.264.377.378.651.779z" fill="url(#A)"/><path d="m33.831 41.67c.091-.362.064-.709.007-1.048.011.001.414.453-.007 1.048z" fill="url(#z)"/><path d="m33.807 41.85c.248.188.527.581.863.687.365.115.726-.035.495-.601.294-.452-.132-.732-.612-.639-.269.052-.549.325-.747.553z" fill="url(#y)"/><path d="m34.016 41.856c.367-.067.711-.017 1.045.061 0-.011-.424-.442-1.045-.061z" fill="url(#x)"/><g fill="#fff"><path d="m31.005 32.929c-1.567.655-1.309 1.606-1.27 2.522 0 0-.88-2.234 1.27-2.522z" fill-opacity=".665" filter="url(#d)"/><path d="m28.263 35.773c-1.119.319-1.853.929-1.49 2.37-.036 0-1.203-2.116 1.49-2.37z" fill-opacity=".665" filter="url(#c)"/><path d="m29.532 42.73c-.321-1.279.43-2.603 1.083-2.979 0 0-1.845.694-1.083 2.979z" fill-opacity=".665" filter="url(#b)"/><path d="m32.698 37.246c.466-.349 1.461-1.042 2.996-1.219-.15-.224-1.974-.016-2.996 1.219z" fill-opacity=".665" filter="url(#e)"/><path d="m11.611 25.134c-3.571 1.812-4.914 3.485-.893 4.823-.74.126-7.259-1.389.893-4.823z" fill-opacity=".665" filter="url(#f)"/><path d="m26.915 22.991c3.56.812 2.677 2.394-.655 4.704 1.316-.542 7.012-2.993.655-4.704z" fill-opacity=".665" filter="url(#g)"/></g><path d="m18.535 20.621c-1.161.947-1.757.341-2.021-1.179.063-17.674 21.072-19.58 28.286-14.639.967 1.367.202 1.87-.084 2.611l-26.181 13.208z" fill="url(#o)"/><path d="m20.512 21.442c-.78.214-1.592.566-1.937-1.179 1.866-20.205 21.857-15.195 26.645-13.692.519 1.01 1.41 2.526-.084 3.032-9.638.101-19.462-.299-24.624 11.84z" fill="url(#n)"/><path d="m21.765 22.164c-.561-.06-1.123.492-1.684-1.684 1.088-15.996 16.729-15.343 25.14-11.298.584.786 1.367 1.572 0 2.358-9.44-2.356-19.465-3.37-23.456 10.624z" fill="url(#u)"/><path d="m23.029 22.573c-.669-.025-1.366.019-1.6-1.095.976-16.522 18.389-14.292 24.298-10.191.388.84.605 1.624-.337 2.021-8.808-2.114-18.527-5.273-22.361 9.265z" fill="url(#p)"/><path d="m24.042 22.508c-1.07.178-1.276-.75-1.042-1.579.788-14.503 17.358-11.758 23-8 .938 1.302-.233 1.55-1 2-17.243-6.686-18.777.512-20.958 7.579z" fill="url(#t)"/><path d="m25 22.929c3.036-12.891 17-8 20-6 .917-.859 1.923-1.704 0-3-5-3-19.055-4.795-21 7-.197 2.436 0 2 1 2z" fill="url(#m)"/><path d="m17.983 13.44c2.854-6.002 7.67-8.303 12.564-10.063-.209-.114-9.762 1.22-12.564 10.063z" fill="#fff" fill-opacity=".813" filter="url(#a)"/><path d="m20.424 14.333c2.126-3.502 4.274-6.993 10.897-8.634 0-.98-9.527 1.61-10.897 8.634z" fill="#fff" fill-opacity=".813" filter="url(#a)"/><path d="m21.972 14.928c1.961-4.054 5.422-6.525 10.242-7.562-.074-.074-8.222.412-10.242 7.562z" fill="#fff" fill-opacity=".813" filter="url(#a)"/><path d="m23.044 16c2.476-3.4 5.704-6.809 10.837-7.086-2.467-.528-9.299 1.266-10.837 7.086z" fill="#fff" fill-opacity=".813" filter="url(#a)"/><path d="m24.592 16.595c1.553-2.572 2.624-5.319 9.706-5.895-1.665-.962-9.628 1.4-9.706 5.895z" fill="#fff" fill-opacity=".813" filter="url(#a)"/><path d="m25.605 17.31c1.475-1.512 2.103-3.03 9.111-4.942 0 0-6.967.119-9.111 4.942z" fill="#fff" fill-opacity=".813" filter="url(#h)"/></svg>